<mxfile host="app.diagrams.net" agent="Mozilla/5.0 (Windows NT 10.0; Win64; x64) AppleWebKit/537.36 (KHTML, like Gecko) Chrome/130.0.0.0 Safari/537.36" version="24.8.2">
  <diagram name="Page-1" id="fPpROkifoLaLzY4Dlr7A">
    <mxGraphModel dx="1434" dy="738" grid="1" gridSize="10" guides="1" tooltips="1" connect="1" arrows="1" fold="1" page="1" pageScale="1" pageWidth="850" pageHeight="1100" math="0" shadow="0">
      <root>
        <mxCell id="0" />
        <mxCell id="1" parent="0" />
        <mxCell id="gTFXGkiJqPm4STYBB8aC-1" value="Assign Pilot to Jet" style="ellipse;whiteSpace=wrap;html=1;" vertex="1" parent="1">
          <mxGeometry x="330" y="140" width="140" height="40" as="geometry" />
        </mxCell>
        <mxCell id="gTFXGkiJqPm4STYBB8aC-2" value="Schedule Trip" style="ellipse;whiteSpace=wrap;html=1;" vertex="1" parent="1">
          <mxGeometry x="330" y="200" width="140" height="40" as="geometry" />
        </mxCell>
        <mxCell id="gTFXGkiJqPm4STYBB8aC-3" value="Manage Jet Maintaince" style="ellipse;whiteSpace=wrap;html=1;" vertex="1" parent="1">
          <mxGeometry x="330" y="260" width="140" height="40" as="geometry" />
        </mxCell>
        <mxCell id="gTFXGkiJqPm4STYBB8aC-4" value="Assign Colonist to Trip" style="ellipse;whiteSpace=wrap;html=1;" vertex="1" parent="1">
          <mxGeometry x="330" y="320" width="140" height="40" as="geometry" />
        </mxCell>
        <mxCell id="gTFXGkiJqPm4STYBB8aC-5" value="Assign House to Colonist" style="ellipse;whiteSpace=wrap;html=1;" vertex="1" parent="1">
          <mxGeometry x="330" y="380" width="140" height="40" as="geometry" />
        </mxCell>
        <mxCell id="gTFXGkiJqPm4STYBB8aC-6" value="Assign Job to Colonist" style="ellipse;whiteSpace=wrap;html=1;" vertex="1" parent="1">
          <mxGeometry x="330" y="440" width="140" height="40" as="geometry" />
        </mxCell>
        <mxCell id="gTFXGkiJqPm4STYBB8aC-7" value="Register Colonist" style="ellipse;whiteSpace=wrap;html=1;" vertex="1" parent="1">
          <mxGeometry x="330" y="500" width="140" height="40" as="geometry" />
        </mxCell>
        <mxCell id="gTFXGkiJqPm4STYBB8aC-8" value="Add Dependents" style="ellipse;whiteSpace=wrap;html=1;" vertex="1" parent="1">
          <mxGeometry x="330" y="560" width="140" height="40" as="geometry" />
        </mxCell>
        <mxCell id="gTFXGkiJqPm4STYBB8aC-10" style="rounded=0;orthogonalLoop=1;jettySize=auto;html=1;exitX=1;exitY=0.3333333333333333;exitDx=0;exitDy=0;exitPerimeter=0;entryX=0;entryY=0.5;entryDx=0;entryDy=0;endArrow=none;endFill=0;" edge="1" parent="1" source="gTFXGkiJqPm4STYBB8aC-9" target="gTFXGkiJqPm4STYBB8aC-1">
          <mxGeometry relative="1" as="geometry" />
        </mxCell>
        <mxCell id="gTFXGkiJqPm4STYBB8aC-9" value="Pilot" style="shape=umlActor;verticalLabelPosition=bottom;verticalAlign=top;html=1;outlineConnect=0;" vertex="1" parent="1">
          <mxGeometry x="150" y="146" width="20" height="40" as="geometry" />
        </mxCell>
        <mxCell id="gTFXGkiJqPm4STYBB8aC-12" style="rounded=0;orthogonalLoop=1;jettySize=auto;html=1;exitX=1;exitY=0.3333333333333333;exitDx=0;exitDy=0;exitPerimeter=0;entryX=0;entryY=0.5;entryDx=0;entryDy=0;endArrow=none;endFill=0;" edge="1" parent="1" source="gTFXGkiJqPm4STYBB8aC-11" target="gTFXGkiJqPm4STYBB8aC-2">
          <mxGeometry relative="1" as="geometry" />
        </mxCell>
        <mxCell id="gTFXGkiJqPm4STYBB8aC-13" style="rounded=0;orthogonalLoop=1;jettySize=auto;html=1;exitX=1;exitY=0.3333333333333333;exitDx=0;exitDy=0;exitPerimeter=0;entryX=0;entryY=0.5;entryDx=0;entryDy=0;endArrow=none;endFill=0;" edge="1" parent="1" source="gTFXGkiJqPm4STYBB8aC-11" target="gTFXGkiJqPm4STYBB8aC-4">
          <mxGeometry relative="1" as="geometry" />
        </mxCell>
        <mxCell id="gTFXGkiJqPm4STYBB8aC-14" style="rounded=0;orthogonalLoop=1;jettySize=auto;html=1;exitX=1;exitY=0.3333333333333333;exitDx=0;exitDy=0;exitPerimeter=0;entryX=0;entryY=0.5;entryDx=0;entryDy=0;endArrow=none;endFill=0;" edge="1" parent="1" source="gTFXGkiJqPm4STYBB8aC-11" target="gTFXGkiJqPm4STYBB8aC-5">
          <mxGeometry relative="1" as="geometry" />
        </mxCell>
        <mxCell id="gTFXGkiJqPm4STYBB8aC-15" style="rounded=0;orthogonalLoop=1;jettySize=auto;html=1;exitX=1;exitY=0.3333333333333333;exitDx=0;exitDy=0;exitPerimeter=0;entryX=0;entryY=0.5;entryDx=0;entryDy=0;endArrow=none;endFill=0;" edge="1" parent="1" source="gTFXGkiJqPm4STYBB8aC-11" target="gTFXGkiJqPm4STYBB8aC-6">
          <mxGeometry relative="1" as="geometry" />
        </mxCell>
        <mxCell id="gTFXGkiJqPm4STYBB8aC-11" value="Admin" style="shape=umlActor;verticalLabelPosition=bottom;verticalAlign=top;html=1;outlineConnect=0;" vertex="1" parent="1">
          <mxGeometry x="150" y="380" width="20" height="40" as="geometry" />
        </mxCell>
        <mxCell id="gTFXGkiJqPm4STYBB8aC-17" style="rounded=0;orthogonalLoop=1;jettySize=auto;html=1;exitX=0;exitY=0.3333333333333333;exitDx=0;exitDy=0;exitPerimeter=0;entryX=1;entryY=0.5;entryDx=0;entryDy=0;endArrow=none;endFill=0;" edge="1" parent="1" source="gTFXGkiJqPm4STYBB8aC-16" target="gTFXGkiJqPm4STYBB8aC-4">
          <mxGeometry relative="1" as="geometry" />
        </mxCell>
        <mxCell id="gTFXGkiJqPm4STYBB8aC-16" value="Colonist" style="shape=umlActor;verticalLabelPosition=bottom;verticalAlign=top;html=1;outlineConnect=0;" vertex="1" parent="1">
          <mxGeometry x="630" y="380" width="20" height="40" as="geometry" />
        </mxCell>
        <mxCell id="gTFXGkiJqPm4STYBB8aC-18" style="rounded=0;orthogonalLoop=1;jettySize=auto;html=1;exitX=1;exitY=0.5;exitDx=0;exitDy=0;endArrow=none;endFill=0;" edge="1" parent="1" source="gTFXGkiJqPm4STYBB8aC-5">
          <mxGeometry relative="1" as="geometry">
            <mxPoint x="630" y="393" as="targetPoint" />
          </mxGeometry>
        </mxCell>
        <mxCell id="gTFXGkiJqPm4STYBB8aC-21" style="rounded=0;orthogonalLoop=1;jettySize=auto;html=1;exitX=1;exitY=0.5;exitDx=0;exitDy=0;entryX=0;entryY=0.3333333333333333;entryDx=0;entryDy=0;entryPerimeter=0;endArrow=none;endFill=0;" edge="1" parent="1" source="gTFXGkiJqPm4STYBB8aC-6" target="gTFXGkiJqPm4STYBB8aC-16">
          <mxGeometry relative="1" as="geometry" />
        </mxCell>
        <mxCell id="gTFXGkiJqPm4STYBB8aC-22" style="rounded=0;orthogonalLoop=1;jettySize=auto;html=1;exitX=1;exitY=0.5;exitDx=0;exitDy=0;entryX=0;entryY=0.3333333333333333;entryDx=0;entryDy=0;entryPerimeter=0;endArrow=none;endFill=0;" edge="1" parent="1" source="gTFXGkiJqPm4STYBB8aC-7" target="gTFXGkiJqPm4STYBB8aC-16">
          <mxGeometry relative="1" as="geometry" />
        </mxCell>
        <mxCell id="gTFXGkiJqPm4STYBB8aC-23" style="rounded=0;orthogonalLoop=1;jettySize=auto;html=1;exitX=1;exitY=0.5;exitDx=0;exitDy=0;entryX=0;entryY=0.3333333333333333;entryDx=0;entryDy=0;entryPerimeter=0;endArrow=none;endFill=0;" edge="1" parent="1" source="gTFXGkiJqPm4STYBB8aC-8" target="gTFXGkiJqPm4STYBB8aC-16">
          <mxGeometry relative="1" as="geometry" />
        </mxCell>
        <mxCell id="gTFXGkiJqPm4STYBB8aC-25" style="rounded=0;orthogonalLoop=1;jettySize=auto;html=1;exitX=0;exitY=0.3333333333333333;exitDx=0;exitDy=0;exitPerimeter=0;entryX=1;entryY=0.5;entryDx=0;entryDy=0;endArrow=none;endFill=0;" edge="1" parent="1" source="gTFXGkiJqPm4STYBB8aC-24" target="gTFXGkiJqPm4STYBB8aC-8">
          <mxGeometry relative="1" as="geometry" />
        </mxCell>
        <mxCell id="gTFXGkiJqPm4STYBB8aC-24" value="Dependent" style="shape=umlActor;verticalLabelPosition=bottom;verticalAlign=top;html=1;outlineConnect=0;" vertex="1" parent="1">
          <mxGeometry x="630" y="566" width="20" height="40" as="geometry" />
        </mxCell>
        <mxCell id="gTFXGkiJqPm4STYBB8aC-26" value="&lt;font style=&quot;font-size: 10px;&quot;&gt;Added by&lt;/font&gt;" style="text;html=1;align=center;verticalAlign=middle;resizable=0;points=[];autosize=1;strokeColor=none;fillColor=none;" vertex="1" parent="1">
          <mxGeometry x="515" y="556" width="70" height="30" as="geometry" />
        </mxCell>
        <mxCell id="gTFXGkiJqPm4STYBB8aC-27" value="Jet Maintenance Crew&lt;span style=&quot;background-color: initial;&quot;&gt;&amp;nbsp;&lt;/span&gt;" style="shape=umlActor;verticalLabelPosition=bottom;verticalAlign=top;html=1;outlineConnect=0;" vertex="1" parent="1">
          <mxGeometry x="630" y="267" width="20" height="40" as="geometry" />
        </mxCell>
        <mxCell id="gTFXGkiJqPm4STYBB8aC-30" style="rounded=0;orthogonalLoop=1;jettySize=auto;html=1;exitX=1;exitY=0.5;exitDx=0;exitDy=0;entryX=0;entryY=0.3333333333333333;entryDx=0;entryDy=0;entryPerimeter=0;endArrow=none;endFill=0;" edge="1" parent="1" source="gTFXGkiJqPm4STYBB8aC-3" target="gTFXGkiJqPm4STYBB8aC-27">
          <mxGeometry relative="1" as="geometry" />
        </mxCell>
        <mxCell id="gTFXGkiJqPm4STYBB8aC-31" value="" style="endArrow=none;dashed=1;html=1;dashPattern=1 3;strokeWidth=2;rounded=0;entryX=1;entryY=0.5;entryDx=0;entryDy=0;exitX=1;exitY=0.5;exitDx=0;exitDy=0;edgeStyle=orthogonalEdgeStyle;curved=1;" edge="1" parent="1" source="gTFXGkiJqPm4STYBB8aC-3" target="gTFXGkiJqPm4STYBB8aC-2">
          <mxGeometry width="50" height="50" relative="1" as="geometry">
            <mxPoint x="170" y="440" as="sourcePoint" />
            <mxPoint x="220" y="390" as="targetPoint" />
            <Array as="points">
              <mxPoint x="520" y="280" />
              <mxPoint x="520" y="220" />
            </Array>
          </mxGeometry>
        </mxCell>
        <mxCell id="gTFXGkiJqPm4STYBB8aC-32" value="&lt;font style=&quot;font-size: 10px;&quot;&gt;Includes&lt;/font&gt;" style="text;html=1;align=center;verticalAlign=middle;resizable=0;points=[];autosize=1;strokeColor=none;fillColor=none;" vertex="1" parent="1">
          <mxGeometry x="515" y="230" width="60" height="30" as="geometry" />
        </mxCell>
        <mxCell id="gTFXGkiJqPm4STYBB8aC-33" value="" style="endArrow=none;dashed=1;html=1;dashPattern=1 3;strokeWidth=2;rounded=0;entryX=1;entryY=0.5;entryDx=0;entryDy=0;exitX=1;exitY=0.5;exitDx=0;exitDy=0;edgeStyle=orthogonalEdgeStyle;curved=1;" edge="1" parent="1" source="gTFXGkiJqPm4STYBB8aC-3">
          <mxGeometry width="50" height="50" relative="1" as="geometry">
            <mxPoint x="470" y="220" as="sourcePoint" />
            <mxPoint x="470" y="160" as="targetPoint" />
            <Array as="points">
              <mxPoint x="520" y="280" />
              <mxPoint x="520" y="160" />
            </Array>
          </mxGeometry>
        </mxCell>
        <mxCell id="gTFXGkiJqPm4STYBB8aC-34" value="&lt;font style=&quot;font-size: 10px;&quot;&gt;Includes&lt;/font&gt;" style="text;html=1;align=center;verticalAlign=middle;resizable=0;points=[];autosize=1;strokeColor=none;fillColor=none;" vertex="1" parent="1">
          <mxGeometry x="520" y="186" width="60" height="30" as="geometry" />
        </mxCell>
      </root>
    </mxGraphModel>
  </diagram>
</mxfile>
